<svg xmlns="http://www.w3.org/2000/svg" width="417.156" height="158.481" viewBox="0 0 417.156 158.481">
  <defs>
    <style>
      .cls-1 {
        fill: #fefefe;
      }

      .cls-2 {
        fill: #ccc8e0;
      }

      .cls-3 {
        fill: #8e8595;
      }

      .cls-4 {
        fill: #2d0749;
      }

      .cls-5 {
        fill: #2d074a;
      }

      .cls-6 {
        fill: #2d084a;
      }

      .cls-7 {
        fill: #2c0649;
      }

      .cls-8 {
        fill: #e3e1eb;
      }

      .cls-9 {
        fill: #e2e0eb;
      }

      .cls-10 {
        fill: #fcfcfc;
      }

      .cls-11 {
        fill: #e3e2eb;
      }

      .cls-12 {
        fill: #fafafb;
      }

      .cls-13 {
        fill: #f8f8fa;
      }

      .cls-14 {
        fill: #dfdde8;
      }

      .cls-15 {
        fill: #e2e0ea;
      }

      .cls-16 {
        fill: #e3e1ec;
      }

      .cls-17 {
        fill: #e1e0ea;
      }

      .cls-18 {
        fill: #e4e1ec;
      }

      .cls-19 {
        fill: #e5e3ec;
      }

      .cls-20 {
        fill: #5e4cb5;
      }

      .cls-21 {
        fill: #f5f5f6;
      }

      .cls-22 {
        fill: #e2e0e9;
      }

      .cls-23 {
        fill: #d7d4e3;
      }

      .cls-24 {
        fill: #7f70c1;
      }

      .cls-25 {
        fill: #d2cee4;
      }

      .cls-26 {
        fill: #d5d1e5;
      }

      .cls-27 {
        fill: #dcdae7;
      }

      .cls-28 {
        fill: #dddbe6;
      }

      .cls-29 {
        fill: #e1dfeb;
      }

      .cls-30 {
        fill: #d0cbe3;
      }

      .cls-31 {
        fill: #c7c2e0;
      }

      .cls-32 {
        fill: #7361c2;
      }

      .cls-33 {
        fill: #e0deea;
      }

      .cls-34 {
        fill: #e1dfea;
      }

      .cls-35 {
        fill: #6e5dbf;
      }

      .cls-36 {
        fill: #6e5cbd;
      }

      .cls-37 {
        fill: #d0cae8;
      }

      .cls-38 {
        fill: #fdfdfd;
      }

      .cls-39 {
        fill: #f8f8f8;
      }

      .cls-40 {
        fill: #f3f2f4;
      }

      .cls-41 {
        fill: #e0dee7;
      }

      .cls-42 {
        fill: #6e5bbc;
      }

      .cls-43 {
        fill: #6250b5;
      }

      .cls-44 {
        fill: #d7d5df;
      }

      .cls-45 {
        fill: #e1deeb;
      }

      .cls-46 {
        fill: #e0deeb;
      }

      .cls-47 {
        fill: #dfdde6;
      }

      .cls-48 {
        fill: #dfdce7;
      }

      .cls-49 {
        fill: #e4e2eb;
      }

      .cls-50 {
        fill: #5e4bb6;
      }

      .cls-51 {
        fill: #e3e0eb;
      }

      .cls-52 {
        fill: #e1dfe9;
      }

      .cls-53 {
        fill: #6653bb;
      }

      .cls-54 {
        fill: #e1dfec;
      }

      .cls-55 {
        fill: #e2e0ec;
      }

      .cls-56 {
        fill: #e2dfec;
      }
    </style>
  </defs>
  <g id="new_logo" data-name="new logo" transform="translate(0 -0.02)">
    <path id="Path_1" data-name="Path 1" class="cls-1" d="M527.1,427.541q0-45.133-.1-90.266c0-3.476.793-4.255,4.255-4.255q204.309.153,408.6,0c3.476,0,4.3.779,4.269,4.255-.195,20.856-.1,41.713-.1,62.486-.556.473-1.126.932-1.724,1.39-4.992,2.211-9.469,6.6-15.573,1.39-2.35-2.016-5.45-.083-5.562,3.573-.389,8.343-.236,16.588-.07,24.875,0,2.364,1.126,3.977,3.712,4.088a3.977,3.977,0,0,0,4.672-3.935c.362-3.448,0-6.952.25-10.372.5-8.009,3.977-11.123,12.514-11.123a8.508,8.508,0,0,1,1.835,1.2q0,38.146.069,76.293c0,3.226-.417,4.366-4.171,4.366q-204.393-.181-408.786,0c-3.643,0-4.171-1.043-4.171-4.338.167-17.561.083-35.136.083-52.711a1.766,1.766,0,0,1,1.752-.4c6.479,5.3,10.831,12.18,14.655,19.466.445.431.848.876,1.279,1.307,3.7,3.24,6.368,7.355,9.385,11.123,1.557,2.155,2.683,4.644,4.894,6.3,2.781,1.39,6.007,1.682,8.885,2.92,8.76,3.629,17.478,7.341,26.543,10.164,4.338,1.627,8.565,4,13.445,2.016,4.741-.348,9.08-2.656,13.835-2.976,3.24.82,5.9-.375,8.343-2.475,5.242-3.115,11.68-2.989,16.838-6.285,1.043-.612,2.1-1.168,3.073-1.863a19.59,19.59,0,0,0,5.186-5.77,11.908,11.908,0,0,1,1.043-1.391,31.277,31.277,0,0,0,4.491-5.562,12.719,12.719,0,0,1,1.084-1.488c3.587-3.893,6.7-8.148,10.011-12.264,1.752-2.781,4.505-4.714,5.881-7.731,1.182-6.952-.487-14.252,1.933-21.107a21.605,21.605,0,0,0,.417-7.258c1.391-4.5.348-9.135.751-13.682,0-.918-1.21,0-.306-.264.139,0,.236.181.222.626-.222,3.782.362,7.633-.417,11.415-2.92.083-3.434-1.933-4.032-3.5-2.419-6.438-4.616-12.959-6.479-19.577-.626-2.225-1.933-5.019,1.849-6.048a3.992,3.992,0,0,1,1.168.514,3.144,3.144,0,0,1,.876.89c.542-.64-.515-.584-.459-1.043-2.99-3.087-4.505-7.119-7.077-10.442-2.781-3.712-5.45-7.453-7.967-11.318-1.613-2.169-2.378-4.922-4.616-6.66-6.312-2.781-12.778-5.2-19.063-8.037-1.529-.862-2.878-2.127-4.741-2.308-1.474-.222-2.975-.25-4.449-.556a13.4,13.4,0,0,1-1.766-.5,44.207,44.207,0,0,0-7.995-2.2A16.1,16.1,0,0,1,613.8,338c-3.5-1.224-6.952-1.682-10.373.32-1.877.973-4.032.932-5.979,1.669-3.434.181-6.34,2.378-9.733,2.517a5.006,5.006,0,0,0-4.825,1.21c-2.294,1.53-5.172,1.682-7.48,3.17-3.7,1.9-8.662-.236-11.721,3.671-5.923,4.547-11.429,9.5-15.489,15.837a9.613,9.613,0,0,1-.918,1.543,11.012,11.012,0,0,0-3.685,4.686,16.575,16.575,0,0,1-3.17,4.352,24.333,24.333,0,0,0-6.4,9.816c-1.043,3.059-1.2,6.313-2.03,9.427,0,1.015-.111,2.03-.153,3.059a43.929,43.929,0,0,1-.556,8.537,21.233,21.233,0,0,0-.807,7.536c0,2.67.069,5.325-.111,7.995C529.781,425.205,530,427.541,527.1,427.541Z" transform="translate(-527 -333)"/>
    <path id="Path_2" data-name="Path 2" class="cls-2" d="M528.39,409.133H527v-6.952c1.682-.945,1.279-2.628,1.39-4.171,2.2-.292,2.405,1.39,2.906,2.85.348,2.781.515,5.451-.945,7.967a1.391,1.391,0,0,1-1.961.306Z" transform="translate(-527 -307.639)"/>
    <path id="Path_3" data-name="Path 3" class="cls-3" d="M827.867,392.119l-1.613-.334a8.787,8.787,0,0,1,.083-10.567l1.529-.209Z" transform="translate(-410.836 -314.263)"/>
    <path id="Path_4" data-name="Path 4" class="cls-4" d="M661.186,397.562c0-6.7.069-13.39,0-20.078,0-2.781.653-4.324,3.838-4.171,7.606.348,15.295-.584,22.831.681,9.33,1.557,14.558,7.522,14.558,16.463,0,9.58-5.729,16.087-15.295,17.408a12.153,12.153,0,0,1-3.448.292c-7.842-1.224-11.318,1.543-10.039,9.886.918,5.9-4.018,3.407-6.632,3.712-2.878.348-6.1.89-5.854-4.171C661.436,410.952,661.172,404.25,661.186,397.562Z" transform="translate(-474.632 -317.273)"/>
    <path id="Path_5" data-name="Path 5" class="cls-5" d="M741.522,399.662a109.239,109.239,0,0,1,.1-11.123c.25-2.378-1.974-6.591,2.336-6.688,3.115,0,7.939-3.3,9.664,2.781.792,2.781,1.933.375,2.642-.153,5.339-3.949,11.123-4.755,16.949-1.682s6.869,8.8,6.7,14.905A130.026,130.026,0,0,0,779.982,413c.459,5.061-1.516,5.979-6.187,6.048-5.089.069-6.382-1.738-6.007-6.4a122.62,122.62,0,0,0,0-13.181c-.083-4.1-1.391-7.383-6.2-7.592s-7.411,2.781-7.828,7.091a80.878,80.878,0,0,0-.125,15.295c.487,5.353-2.781,4.658-6.035,4.672s-6.618.64-6.2-4.644C741.828,409.409,741.522,404.515,741.522,399.662Z" transform="translate(-443.345 -314.298)"/>
    <path id="Path_6" data-name="Path 6" class="cls-5" d="M788.062,386.128c5.562-5.047,11.833-6.841,18.59-3.462s7.272,9.538,7.105,16.059a88.3,88.3,0,0,0,0,13.154c.737,5.979-1.571,7.522-7.244,7.133-3.81-.264-5.367-1.085-5.1-5.117.32-4.825.07-9.733.07-14.544,0-4.171-1.488-7.341-6.229-7.48s-7.383,2.781-7.745,7.133a94.565,94.565,0,0,0,0,15.295c.445,5.3-2.781,4.672-6.09,4.616s-6.549.973-6.326-4.477c.361-9,0-18.076.153-27.016,0-2.211-1.39-5.868,2.781-5.562C781.722,381.956,787.075,378.995,788.062,386.128Z" transform="translate(-430.166 -314.292)"/>
    <path id="Path_7" data-name="Path 7" class="cls-4" d="M745.42,404.653v6.952c0,6.73-5.409,10.553-10.706,6.6-2.683-2-3.434-1-5.27-.222a16.921,16.921,0,0,1-12.166.737,10.873,10.873,0,0,1-7.995-10.929c0-5.478,3.031-8.913,8.343-10.5,3.879-1.154,7.8-.584,11.707-.862,1.39-.1,3.643.945,3.921-1.39a4,4,0,0,0-3.059-4.171,14.321,14.321,0,0,0-10.831.681c-3.879,1.821-5.1,0-6.521-3.226-1.766-4.1,1.293-4.171,3.49-4.88a49.082,49.082,0,0,1,8.718-2.183c14.155-1.724,20.328,3.768,20.356,17.853Z" transform="translate(-455.836 -314.283)"/>
    <path id="Path_8" data-name="Path 8" class="cls-6" d="M832.5,381.154l-.083,10.567c-9.316,1.1-11.123,3.059-11.123,12.18a53.139,53.139,0,0,0,0,8.343c.876,5.784-1.808,6.869-6.952,6.744-4.171-.083-5.562-1.043-5.409-5.395.348-8.523,0-17.074.195-25.612.069-2.253-1.988-6.382,2.781-6.257,3.685.1,9.135-2.781,10.011,4.449C825.145,383.364,828.246,380.945,832.5,381.154Z" transform="translate(-416.999 -314.212)"/>
    <path id="Path_9" data-name="Path 9" class="cls-7" d="M695.609,396.725c0-7.133.181-14.28-.069-21.413-.181-5.006,3.115-4.171,5.993-4.046s6.146-1.293,6.062,3.879c-.195,14.516-.236,29.032,0,43.534.1,5.2-3.212,4.018-5.951,3.935s-6.312,1.529-6.132-3.768C695.79,411.477,695.609,404.094,695.609,396.725Z" transform="translate(-461.211 -318.118)"/>
    <path id="Path_10" data-name="Path 10" class="cls-8" d="M586.174,464.975c-8.927-3.476-18.228-6.048-26.585-10.915a2.906,2.906,0,0,1,1.529-2.113c1.5-.514,3.365-.111,4.477-1.7,1.085-6.1-2.5-11.04-4.171-16.407s-3.991-10.331-4.908-15.837a5.284,5.284,0,0,0-1.307-2.378c-2.391-2.058-5.075-3.838-6.952-6.465-.9-1.307-2.781-2.781-.389-4.491,2.906-.6,4.435,1.891,7.119,3.3.181-4.269-.167-8.273.167-12.236.195-2.294-.445-5.284,3.142-5.882,1.974,1.891,1.682,4.575,2.475,6.883a11.122,11.122,0,0,1,0,4.171c-1.71,9.733-.973,11.263,7.745,14.627q16.129,6.187,32.327,12.138c2.572.945,5.284,1.724,7.258,3.838.542,1.2-.1,1.877-1.043,2.433-3.643,1.168-6.73-.681-9.942-1.835-11.123-4.06-22.247-8.551-34.524-12.667,3.017,11.123,6.646,20.982,10.289,30.826.765,2.058,1.877,1.39,3.184.765s3.059-1.168,4.408.375a2.934,2.934,0,0,1-1.78,3.031c7.717.973,15.42.431,22.511,3.5a1.655,1.655,0,0,1,0,1.849c-5.395,2.489-10.957,1.307-16.49.612a3.963,3.963,0,0,1,3.031,2.308C588,464.043,586.967,464.419,586.174,464.975Z" transform="translate(-519.308 -310.812)"/>
    <path id="Path_11" data-name="Path 11" class="cls-1" d="M544.143,358.451v-1.39a2.016,2.016,0,0,1,1.807,0c2.336,1.627,4.561,3.407,6.952,4.894a16.3,16.3,0,0,1,4.658,4.992c2.308,4.31,1.39,8.343-1.168,12.166-1.585,2.364-3.8,4.171-5.492,6.452a7.9,7.9,0,0,1-2.141,1.752,22.037,22.037,0,0,0-6.424,4.825,14.575,14.575,0,0,1-1.5,1.126c-2.211.876-3.949,4.255-6.6,2.28-2.113-1.585-.487-4.3-.181-6.521a16.914,16.914,0,0,1,.417-1.849,76.745,76.745,0,0,0,2.392-8.009,17.651,17.651,0,0,1,.681-2.684,53.355,53.355,0,0,0,2.5-8.76,13.093,13.093,0,0,1,.528-1.78C541.793,363.484,541.932,360.508,544.143,358.451Z" transform="translate(-524.594 -323.698)"/>
    <path id="Path_12" data-name="Path 12" class="cls-8" d="M641.438,424.982c-3.643,4.171-6.09,9.5-11.04,12.514-1.613-.459-2.976-1.516-4.6-2-5.756-1.015-11.819,1.1-17.408-1.669a1.836,1.836,0,0,1-.417-2.03c3.212-2.558,7.049-1.627,10.651-1.738,7.383-.236,7.3-.348,6.229-7.453-1.39-9.3-5.242-18.159-4.936-27.809a3.239,3.239,0,0,1,3.518-2.086c4.491,10.6,5.1,22.094,7.592,31.98,5.228-9.733,7.286-21.885,15.5-31.173a3.615,3.615,0,0,1,3.128.473c-2.308,7.884,0,16.171-2.141,24.068-1.154.765-1.877.1-2.545-.737-2-4.978-.64-9.663,1.224-14.321-2.489,5.562-4.547,11.4-7.272,16.894-.584,1.182-1.6,2.517.806,2.906a3.24,3.24,0,0,1,1.71,2.183Z" transform="translate(-495.443 -309.709)"/>
    <path id="Path_13" data-name="Path 13" class="cls-9" d="M632.226,359.056l6.952,11.123c-.4.514-.542,1.307-1.39,1.39-1.279-.431-3.24-1.154-2.489,1.251a176.364,176.364,0,0,0,9.594,25.028v-13.6h1.14v18.076a2.948,2.948,0,0,1-3.073.167c-2.461-1.738-3.156-4.519-3.921-7.147-2.628-9.01-6.757-17.505-8.551-25.139-3.393,9.33-4.936,20.62-10.539,30.589-1.307.32-2.016-.389-2.558-1.39-.987-5.784,1.641-10.859,3.281-16.073,2.155-6.827,4.171-13.7,6.952-20.3C628.834,361.309,629.279,358.764,632.226,359.056Z" transform="translate(-491.793 -322.844)"/>
    <path id="Path_14" data-name="Path 14" class="cls-10" d="M629.883,423a2.531,2.531,0,0,1,2.781,2.781h0c-1.6,2.544-4.074,4.38-5.562,6.952h0c-1.6,2.531-4.074,4.38-5.562,6.952a2.948,2.948,0,0,1-2.781,1.39,47.189,47.189,0,0,1-16.1,4.616,2.294,2.294,0,0,1-.848-1.641c1.057-1.988,3.128-2.934,4.63-4.477a13.7,13.7,0,0,1,1.39-1.071A24.83,24.83,0,0,0,612,435.365a14.551,14.551,0,0,1,1.391-1.029,25.916,25.916,0,0,0,4.171-3.128,12.5,12.5,0,0,1,1.39-1.029,26.96,26.96,0,0,0,4.171-3.142,12.79,12.79,0,0,1,1.39-1.043c1.543-.862,2.85-2.1,4.491-2.781Z" transform="translate(-497.792 -297.873)"/>
    <path id="Path_15" data-name="Path 15" class="cls-11" d="M640.564,362.2l-2.781,4.171a123.052,123.052,0,0,1-40.934-4.8,2.7,2.7,0,0,1-1.029-1.863c3.2-3.379,7.147-1.808,10.887-1.627,8.343.431,16.365,3.6,24.791,1.752,1.78-2.684-1.766-4.463-1.154-6.952a2.433,2.433,0,0,1,1.974-1.9Z" transform="translate(-500.131 -325.988)"/>
    <path id="Path_16" data-name="Path 16" class="cls-10" d="M536.733,385.985v1.543c-1.39,1.2-1.752,4.783-3.824,3.782-3.031-1.488-2.072-5.075-1.849-7.967.348-2.517-.1-5.131.779-7.592.918-4.269,4.269-7.091,6.34-10.678l2.781-3.963c3.379.375,1.96,2.392,1.39,4.171h0c-1.224,3.2-1.724,6.6-2.781,9.844v2.781a12.153,12.153,0,0,0-2.836,8.078Z" transform="translate(-525.54 -322.033)"/>
    <path id="Path_17" data-name="Path 17" class="cls-12" d="M554.911,346.483c1.933-6.146,7.689-2.044,11.123-4.171a3.379,3.379,0,0,1,4.338,0,1.947,1.947,0,0,1-.125,1.752c-2.016,1.835-4.686,2.781-6.354,5.1-2.239,1.835-5.089,2.475-7.522,3.963-2.628.89-5.937,4.171-7.814,1.39s2.6-4.352,4.171-6.507a8.608,8.608,0,0,1,2.183-1.529Z" transform="translate(-518.76 -329.68)"/>
    <path id="Path_18" data-name="Path 18" class="cls-13" d="M579.213,337.687l4.088-1.279a21.287,21.287,0,0,1,12.514-.1h0c3.156,1.265,6.577,1.655,9.733,2.781h0c0,2.586-1.988,2.962-3.74,3.073a211.7,211.7,0,0,1-22.622.083c-1.627-.07-3.8-.445-3.991-2.058C574.93,337.409,578.2,339.119,579.213,337.687Z" transform="translate(-508.19 -332.064)"/>
    <path id="Path_19" data-name="Path 19" class="cls-14" d="M581.376,337.089l-4.283,3.073c11.262-1.168,21.023,1.39,30.687-1.7l5.743.139A2.447,2.447,0,0,1,612.9,342c-4.783,2.28-9.9,1.168-14.864,1.39-7.995.264-16-.417-23.957.862a6.146,6.146,0,0,1-3.615-.973,2.308,2.308,0,0,1-.181-3.365C574.048,339.314,577.232,336.269,581.376,337.089Z" transform="translate(-510.353 -331.466)"/>
    <path id="Path_20" data-name="Path 20" class="cls-15" d="M528,406h1.39c5.77,0,6.313,5.645,9.3,8.343-.779-2.5-1.877-5.3.222-8.023,4.616,0,3.546,4.032,4.171,6.368.82,3.393,2.016,5.951,5.562,6.952,1.39,2.336-.4,3.462-1.821,4.727-1.557.765-3.573.667-4.63,2.405C538.734,418.931,532.978,412.757,528,406Z" transform="translate(-526.61 -304.507)"/>
    <path id="Path_21" data-name="Path 21" class="cls-16" d="M557.685,345.09l-6.952,8.2,8.343-2.781c-.348,5.562-5.84,5.562-8.927,8.148a14.238,14.238,0,0,1-6.785,3.017H541A38.821,38.821,0,0,1,557.685,345.09Z" transform="translate(-521.534 -328.288)"/>
    <path id="Path_22" data-name="Path 22" class="cls-9" d="M604.2,340c7.467,1.835,14.294,5.2,21.135,8.551.389,1.307-.473,1.682-1.474,1.974-3.226-.111-5.854-2.03-8.8-2.781-.375-.9-1.057.765-.348.167.139-.125.236,0,.487.431a3,3,0,0,1,.528,3.115c-6.952.612-9.038-5.562-12.806-9.316C602.629,340.973,602.879,340.153,604.2,340Z" transform="translate(-497.401 -330.275)"/>
    <path id="Path_23" data-name="Path 23" class="cls-17" d="M533.132,377.062v6.757c2.308.362,2.447-2.419,4.171-2.475.292,1.988-2.044,3.643-.765,5.854,2.545-.292,3.573-3.559,6.382-3.184,0,5.367-4.171,6.535-7.967,8.037a4.63,4.63,0,0,1-2.864-.473c-2.016-2.308-1.251-5.284-1.877-7.912a7.3,7.3,0,0,0-1.112-2.378v-2.836C530.351,377.813,531.366,376.27,533.132,377.062Z" transform="translate(-526.18 -315.891)"/>
    <path id="Path_24" data-name="Path 24" class="cls-18" d="M548.733,432.658C544.562,429.877,542.7,425,539,421.8c.5-1.474,1.849-1.766,3.1-2.169,4,.876,7.341,2.586,8.482,6.952-2.1,1.39-.862,3.6-1.251,5.409Z" transform="translate(-522.315 -299.185)"/>
    <path id="Path_25" data-name="Path 25" class="cls-8" d="M600.195,444.73c-5.2,0-9.733,3.7-15.114,2.711a5.831,5.831,0,0,0-.181-.959c1.237-2.308,3.754-2.433,5.909-3.281-2.044-.111-4.3.389-4.338-2.7h0c4.171-2.92,8.343-2.239,12.417.07C600.07,441.685,601.126,442.9,600.195,444.73Z" transform="translate(-504.394 -291.791)"/>
    <path id="Path_26" data-name="Path 26" class="cls-19" d="M602.9,438.7c3.226,2.878,5.854-.417,8.732-.89,2.656-.445,5.256-1.224,7.884-1.863-4.88,5.145-12.1,4.3-17.95,6.952a2.392,2.392,0,0,1-1.807-2.892C600.565,438.8,601.51,438.077,602.9,438.7Z" transform="translate(-498.619 -292.813)"/>
    <path id="Path_27" data-name="Path 27" class="cls-20" d="M601.995,439.381l1.516,2.781c-1.391,3.532-3.462,5.27-7.188,2.781-.417-.959-.82-1.9-1.224-2.864-.612-1.543.209-2.531,1.39-3.42a5.562,5.562,0,0,1,3.963-.459,3.56,3.56,0,0,1,1.543,1.182Z" transform="translate(-500.494 -292.004)"/>
    <path id="Path_28" data-name="Path 28" class="cls-21" d="M530.817,381a8.565,8.565,0,0,1,1.391,8.343c1.668,1.557,1.627,3.518,1.39,5.562a8.231,8.231,0,0,1-.612,1.877c-1.947,3.379-3.559,3.128-4.853-.473.32-2.35-.9-4.992,1.39-6.952.431.278.751.709.584,1.154-.32.862-.222,1.46,0,.556C530.747,387.716,529.357,384.226,530.817,381Z" transform="translate(-526.576 -314.267)"/>
    <path id="Path_29" data-name="Path 29" class="cls-22" d="M528.07,392c1.39,1.947,2.781,1.9,4.171,0,2.211,4.491,2.2,8.426-2.781,11.123a2.989,2.989,0,0,0-1.39-2.781Q528.091,396.171,528.07,392Z" transform="translate(-526.582 -309.973)"/>
    <path id="Path_30" data-name="Path 30" class="cls-23" d="M533.124,379.462l-4,1.39c2.044-2.892.5-6.827,2.781-9.636.4-.681.793-.709,1.182,0Z" transform="translate(-526.172 -318.291)"/>
    <path id="Path_31" data-name="Path 31" class="cls-24" d="M636.769,390.14h2.489a3.2,3.2,0,0,1,0,4.978l-2.2.222a2.948,2.948,0,0,1-2.531-2.155,4,4,0,0,1,.153-1.766A2.322,2.322,0,0,1,636.769,390.14Z" transform="translate(-485.032 -310.699)"/>
    <path id="Path_32" data-name="Path 32" class="cls-25" d="M575.09,444.406l1.39-1.39c4.714-1.5,8.565.779,12.514,2.864h0C583.836,449.815,579.651,445.269,575.09,444.406Z" transform="translate(-508.224 -290.244)"/>
    <path id="Path_33" data-name="Path 33" class="cls-26" d="M560.221,436.016c-.487.5-.973.987-1.474,1.474a31.757,31.757,0,0,1-10-2.781,3.518,3.518,0,0,1,2.1-2.225C554.576,432.109,557.857,432.9,560.221,436.016Z" transform="translate(-518.508 -294.2)"/>
    <path id="Path_34" data-name="Path 34" class="cls-27" d="M565.171,344.276c-.987-1.7-2.642-1.39-4.171-1.39,2.253-2.266,5.562-1.682,8.134-2.906a2.266,2.266,0,0,1,1.794,2.948,3.865,3.865,0,0,1-3.045,2.294A3.128,3.128,0,0,1,565.171,344.276Z" transform="translate(-513.725 -330.283)"/>
    <path id="Path_35" data-name="Path 35" class="cls-8" d="M532.332,373.83H531.15a16.448,16.448,0,0,1,6.869-9.9C537.421,367.99,534.139,370.493,532.332,373.83Z" transform="translate(-525.38 -320.932)"/>
    <path id="Path_36" data-name="Path 36" class="cls-28" d="M530.44,381.371v12.611c-2.252-1.112-.973-2.934-1.39-4.283,0-3.212.1-6.438.139-9.65C529.592,380.467,530.023,380.912,530.44,381.371Z" transform="translate(-526.2 -314.638)"/>
    <path id="Path_37" data-name="Path 37" class="cls-29" d="M539.45,366.343c-.1-1.5.292-3.17-1.39-4.171.125-2.656,1.39-4.171,4.171-4.171a12.514,12.514,0,0,1-2.781,8.343Z" transform="translate(-522.682 -323.247)"/>
    <path id="Path_38" data-name="Path 38" class="cls-30" d="M636.565,409.83l1.835,1.7-6.007,6.757-1.39-1.39a6.758,6.758,0,0,1,5.562-7.063Z" transform="translate(-486.399 -303.011)"/>
    <path id="Path_39" data-name="Path 39" class="cls-14" d="M593.574,336.639l-12.514.1C585.148,333.775,589.319,333.97,593.574,336.639Z" transform="translate(-505.894 -332.392)"/>
    <path id="Path_40" data-name="Path 40" class="cls-31" d="M617.8,347.332l1.682-1.182c2.378,1.641,2.628,4.616,4.171,6.744l-1.39,1.39A6.952,6.952,0,0,1,617.8,347.332Z" transform="translate(-491.553 -327.874)"/>
    <path id="Path_41" data-name="Path 41" class="cls-29" d="M551.7,434.075c-.612.626-1.224,1.265-1.849,1.891-1.39-2.28-3.518-4.171-3.824-6.952h.07C549.826,428.611,551.328,430.724,551.7,434.075Z" transform="translate(-519.57 -295.541)"/>
    <path id="Path_42" data-name="Path 42" class="cls-32" d="M568.618,343.3c-.584-.918-1.168-1.821-1.738-2.781,1-2,2.558-2.2,4.435-1.39,0,.959.139,1.9.222,2.781a2.781,2.781,0,0,1-1.516,1.724h-.806Z" transform="translate(-511.43 -330.79)"/>
    <path id="Path_43" data-name="Path 43" class="cls-22" d="M599.783,338.843c-3.546.083-6.952-.389-9.733-2.781C593.568,335.979,596.933,336.424,599.783,338.843Z" transform="translate(-502.384 -331.816)"/>
    <path id="Path_44" data-name="Path 44" class="cls-33" d="M620,431.952c.348-3.532,2.962-5.256,5.562-6.952C625.242,428.434,622.642,430.172,620,431.952Z" transform="translate(-490.69 -297.088)"/>
    <path id="Path_45" data-name="Path 45" class="cls-34" d="M616,436.952c.334-3.532,2.962-5.256,5.562-6.952C621.228,433.42,618.628,435.158,616,436.952Z" transform="translate(-492.252 -295.136)"/>
    <path id="Path_46" data-name="Path 46" class="cls-35" d="M542.332,420.777l-2.892,1.613a6.631,6.631,0,0,0-1.154-.389c-.334-1.293-.9-2.781.431-3.671s2.461.264,3.5,1.085a.793.793,0,0,1,.375.848C542.526,420.555,542.443,420.777,542.332,420.777Z" transform="translate(-522.754 -299.818)"/>
    <path id="Path_47" data-name="Path 47" class="cls-36" d="M605.03,340.775l-1.307,1.265a1.849,1.849,0,0,1-1.279.89,2.614,2.614,0,0,1-1.529-.5,1.39,1.39,0,0,1,0-1.53l.5-2.781C603.6,337.633,604.557,338.884,605.03,340.775Z" transform="translate(-498.231 -331.05)"/>
    <path id="Path_48" data-name="Path 48" class="cls-37" d="M632,368.44l1.39-1.39,2.92,4.672C633.529,371.569,632.959,369.761,632,368.44Z" transform="translate(-486.005 -319.714)"/>
    <path id="Path_49" data-name="Path 49" class="cls-38" d="M529.123,403.3a21.788,21.788,0,0,0,2.781-11.123h0c2.864-1.71,3.685.473,4.171,2.461.709,2.614,1.321,5.27,1.877,7.925a16.845,16.845,0,0,1,.5,1.821,27.435,27.435,0,0,1,.459,6.313,2.373,2.373,0,0,1-.111.876l1.2,11.972c-4.964-3.434-6.16-9.344-10.957-11.958Z" transform="translate(-526.204 -310.146)"/>
    <path id="Path_50" data-name="Path 50" class="cls-39" d="M670.181,389.63c.111-5.3-1.39-9.83,5.673-9.33,8.106.57,11.276,2.322,11.012,8.106-.32,7.2-5.562,6.952-10.818,7.494C669.333,396.583,669.819,392.495,670.181,389.63Z" transform="translate(-471.169 -314.555)"/>
    <path id="Path_51" data-name="Path 51" class="cls-40" d="M725,396.775c1.738.723,5.27-1.5,5.256,2.2,0,4.575-3.671,6.034-7.62,6.2-2.781.125-5.228-1.224-5.075-4.352C717.826,395.968,721.844,397.095,725,396.775Z" transform="translate(-452.602 -308.115)"/>
    <path id="Path_52" data-name="Path 52" class="cls-1" d="M605.282,444.214c-15.906-4.449-31.132-10.873-46.371-17.047-5.1-2.058-4.964-8.44-2.378-13.626,2.781,2.433,5.325,1.488,8.037-.334,4.352-2.92,8.523-6.146,13.348-8.343,4.269-1.919,4.463-4.644,1.808-8.148-1.488-1.974-3.268-3.907-2.628-6.744a2.044,2.044,0,0,1,2.586-.375,11.776,11.776,0,0,0,1.1.751c.667.375,1.2.973,1.891,1.321a24.137,24.137,0,0,0-2.169-1.516,80.02,80.02,0,0,1-6.869-4.422,12.622,12.622,0,0,1-1.488-1.071,27.878,27.878,0,0,0-4.352-3.281,12.5,12.5,0,0,1-1.585-1.126c-2.239-2.781-6.257-3.865-7.453-7.675a2.865,2.865,0,0,1,1.015-1.821c12-3.8,23.707-8.746,36.527-9.288,1.752,4.588-1.78,5.562-4.741,6.215a114.716,114.716,0,0,0-14.627,4.31c-4.547,1.543-4.839,3.7-1.126,6.827a99.275,99.275,0,0,0,11.123,8.217c3.351,2.086,5.854,2.266,7.105-2.517,1.988-7.592,7.786-14.516,3.712-23.1a4.894,4.894,0,0,1,3.1-2.572c2.225-.876,4.588-1.474,6.6.125,2.266,1.794,1.224,4.3.542,6.424-3.3,10.359-7.4,20.425-11.262,30.589-3.81,3.17-4.811,6.452-.306,9.914,1.265,4.588,2.016,9.316,3.6,13.821,1.9,7.828,4.519,15.489,5.562,23.512A2.352,2.352,0,0,1,605.282,444.214Z" transform="translate(-516.155 -323.254)"/>
    <path id="Path_53" data-name="Path 53" class="cls-1" d="M576.94,443.71c-2.962,0-4.964,2.294-7.731,3.323-4.866-12.194-9.038-24.458-13.209-38.153,13.265,4.95,25.487,9.5,37.681,14.085,3.226,1.224,6.354,2.781,9.928,2.781a3.018,3.018,0,0,1,.612,2.572c-.473,2.266-3.017,1.39-4.171,2.67-5.089,2.628-9.969,5.562-14.794,8.676a11.944,11.944,0,0,1-1.6,1.015c-1.988.932-3.852,2.127-5.9,2.948Z" transform="translate(-515.678 -303.382)"/>
    <path id="Path_54" data-name="Path 54" class="cls-1" d="M533.433,394c2.989-2.016,6.285-3.7,7.967-7.147h0c2.614-1.516,4.435-4.032,7.036-5.562l1.307-1.39a39.114,39.114,0,0,0,6.271-5.478,7.909,7.909,0,0,1,1.39-1.488c2.586-1.321,4.449-5.325,8.217-2.183.362,7.369-.111,14.739,0,22.094a6.007,6.007,0,0,1-2.072,5.131c-2.976,6.757-.334,13.9-1.724,21.176-4.018-.57-5.159-5.9-9.4-5.937a4.533,4.533,0,0,1-2.6-1.154c-3.337-2.92-6.1-6.479-9.914-8.857a31.033,31.033,0,0,1-3.532-3.087C535.269,398.128,532.071,397.182,533.433,394Z" transform="translate(-524.618 -318.728)"/>
    <path id="Path_55" data-name="Path 55" class="cls-1" d="M577.149,385.323a6.208,6.208,0,0,0,.264.64c6.368,11.666,6.354,11.652-5.159,19.258-3.434,2.28-6.744,4.769-10.275,6.952s-5.742,1.39-5.715-3.142v-4.171c-.973-11.04-1.39-22.066.7-33.037.222-2.711,1.766-1.891,3.323-1.307,2.878,1.085,4.519,3.81,7.147,5.214h0c1.947,1.293,3.6,2.962,5.562,4.171h0C574.563,381.43,577.65,381.987,577.149,385.323Z" transform="translate(-515.887 -318.591)"/>
    <path id="Path_56" data-name="Path 56" class="cls-1" d="M595.786,424.4c.57-1.321,2.781.167,3-1.808a2.892,2.892,0,0,1,2.1.487c4.283,6.813,7.216,14,6.007,22.247l-1.39,2.781c-3.949-2.322-8.343-1.112-12.514-1.39-7.745-2.781-16.073-2.127-24.722-3.546l3.879-4.783h0c2.169-1.682,4.894-2.419,6.952-4.171h0C584.649,430.974,590.322,427.873,595.786,424.4Z" transform="translate(-510.887 -298.043)"/>
    <path id="Path_57" data-name="Path 57" class="cls-1" d="M541.112,424.518a6.748,6.748,0,0,1-.111-1.39l2.85-4.269.459-.862a99.146,99.146,0,0,1,10.192-7.62c1.71-1.2,3.559-3.073,5.951-1.071,1.14,11.3,7.105,21.079,10.122,31.813,1.391,4.783-1.237,2.781-3.128,2.781-2.308.89-3.5-.945-5.005-2.03a29.032,29.032,0,0,0-9.163-6.34c-1.766-.9-3.406-1.919-3.8-4.074C547.744,427.855,543.948,426.743,541.112,424.518Z" transform="translate(-521.534 -303.559)"/>
    <path id="Path_58" data-name="Path 58" class="cls-1" d="M537.129,391.131l2.656,2.683c4.171,2.781,6.952,7.216,11.249,9.83l1.251,1.279c2.364,4.06,6.229,6.646,9.622,9.733-4.908,3.935-10.15,7.425-15.156,11.221h0c-4.463,1.821-6.618.292-6.952-4.477a18.465,18.465,0,0,0-2.781-9.413h0c-1.655-2.086.32-4.922-1.39-6.952h0c-.6-3.5-1.933-6.883-2.044-10.47C533.556,392.34,533.292,389.546,537.129,391.131Z" transform="translate(-524.435 -310.494)"/>
    <path id="Path_59" data-name="Path 59" class="cls-38" d="M590.544,447.068c-4.6.987-8.343-1.919-12.514-2.864l-7.23-4.714c7.105.973,14.1.681,21.065.626,2.266,2.934,6.1.07,8.927,2.475C597.872,445.4,593.2,444.023,590.544,447.068Z" transform="translate(-509.899 -291.431)"/>
    <path id="Path_60" data-name="Path 60" class="cls-10" d="M562.078,434.893l4.06,2.781c.4,5.659-3.3-.487-4.171,1.39l-9.622-3.24-5.562-5.158c-.25-.876-.459-1.752-.765-2.6-.417-1.126-2.586-1.9-1.057-3.309.528-.487,2.141.236,3.267.417l4.032,2.781C555.376,430.36,558.838,432.445,562.078,434.893Z" transform="translate(-520.198 -297.248)"/>
    <path id="Path_61" data-name="Path 61" class="cls-41" d="M557.992,370.74c-2.044,11.457-1.265,23.039-1.488,34.566-2.28-1.961-.987-4.63-1.39-6.952V370.67a1.39,1.39,0,0,1,.07-1.808,2.781,2.781,0,0,1,2.892.083,1.39,1.39,0,0,1-.083,1.794Z" transform="translate(-516.141 -319.149)"/>
    <path id="Path_62" data-name="Path 62" class="cls-16" d="M543.05,419.162A41.8,41.8,0,0,1,558.275,407.9l1.474,1.641C553.005,410.82,549.655,417.772,543.05,419.162Z" transform="translate(-520.734 -303.765)"/>
    <path id="Path_63" data-name="Path 63" class="cls-42" d="M591.316,424.489a1.821,1.821,0,0,0-1.126-.667l.083-2.183,1.14-1.39h0a1.933,1.933,0,0,1,1.5-.848,3.81,3.81,0,0,1,2.99,1.933,3.129,3.129,0,0,1,0,1.821,3.852,3.852,0,0,1-2,1.863,3.3,3.3,0,0,1-2.586-.528Z" transform="translate(-502.329 -299.275)"/>
    <path id="Path_64" data-name="Path 64" class="cls-1" d="M549.06,376.608c1.585-3.99,2.85-8.009,1.39-12.333l.89-.514,1.015.153c6.271,5.381,6.132,6.313-1.919,12.778h0A.793.793,0,0,1,549.06,376.608Z" transform="translate(-518.387 -320.998)"/>
    <path id="Path_65" data-name="Path 65" class="cls-29" d="M550.622,373l1.39.07c-1.724,2.614-3.462,5.214-6.952,5.562A15.294,15.294,0,0,1,550.622,373Z" transform="translate(-519.949 -317.391)"/>
    <path id="Path_66" data-name="Path 66" class="cls-33" d="M535.229,381.3a6.076,6.076,0,0,1,2.781-8.176Z" transform="translate(-524.036 -317.344)"/>
    <path id="Path_67" data-name="Path 67" class="cls-29" d="M546.086,378c-1.794,2.572-3.5,5.228-7.036,5.562C540.788,380.962,542.512,378.32,546.086,378Z" transform="translate(-522.295 -315.439)"/>
    <path id="Path_68" data-name="Path 68" class="cls-8" d="M537.053,373.864c-.1-3.573.375-6.952,2.781-9.844a14.363,14.363,0,0,1-2.781,9.844Z" transform="translate(-523.08 -320.897)"/>
    <path id="Path_69" data-name="Path 69" class="cls-16" d="M549,362.6c-3.156-.806-5.937-2.1-6.952-5.562h0c3.824-.64,6.076,1.182,7.286,4.644Z" transform="translate(-521.124 -323.673)"/>
    <path id="Path_70" data-name="Path 70" class="cls-29" d="M552.632,365.291l-1.391.083a9.538,9.538,0,0,1-4.171-4.171h0C551.144,359.729,552.534,361.564,552.632,365.291Z" transform="translate(-519.164 -322.195)"/>
    <path id="Path_71" data-name="Path 71" class="cls-1" d="M597.612,433.7l-2.572-1.669c-4.171-7.4-4.171-16.115-7.55-23.762-.751-5.562-3.421-10.818-2.976-16.685a3.935,3.935,0,0,1,2.5-2.419,51.307,51.307,0,0,1,19.466.514c5.909.806,11.9-.306,17.784.806,2.781,1.029,4.866,2.642,5.423,5.729,2.419,11.123,4.658,22.33,7.342,33.37.848,3.532-.515,3.949-3.3,3.935H617.189a23.206,23.206,0,0,1-19.577.181Z" transform="translate(-504.564 -311.35)"/>
    <path id="Path_72" data-name="Path 72" class="cls-1" d="M593.1,423.775l1.21-1.641a62.569,62.569,0,0,1,19.466,0c6.466.792,13.167-1.46,19.466,1.39h0c-1.974,1.237-3.643,2.906-5.562,4.171h0c-1.988,1.237-3.657,2.906-5.562,4.171h0c-1.988,1.237-3.643,2.906-5.562,4.171h0c-1.988,1.237-3.643,2.906-5.562,4.171h0c-1.974,1.237-3.657,2.892-5.562,4.171h0l-2.781,1.39-1.39-.556c-1.39-.236-2.906-.209-3.365-1.863C596.159,436.914,593.156,430.713,593.1,423.775Z" transform="translate(-501.193 -298.505)"/>
    <path id="Path_73" data-name="Path 73" class="cls-1" d="M641.441,392.6l1.627,2.711c-6.952,9.8-9.733,21.621-15.5,32.049l-1.488,2.711c-2.586-12.514-6.229-23.818-6.952-35.734-.681-1.724.542-2.336,1.724-2.976C627.787,390.807,634.767,389.111,641.441,392.6Z" transform="translate(-491.108 -310.574)"/>
    <path id="Path_74" data-name="Path 74" class="cls-38" d="M638.123,414.812l-5.562,7.077L627,423.975l12.152-26.9C640.237,404.022,637.094,409.347,638.123,414.812Z" transform="translate(-487.957 -307.993)"/>
    <path id="Path_75" data-name="Path 75" class="cls-43" d="M622.515,393.739l-1.293,1.682-2.906,1.251a6.1,6.1,0,0,1-4.171-4.31,1.39,1.39,0,0,1-.542-1.474,4.769,4.769,0,0,1,1.655-1.947,9.647,9.647,0,0,1,3.128-1.39,1.126,1.126,0,0,1,1.2.876l1.543,1.14a2.92,2.92,0,0,1,2.141,2.642,2.252,2.252,0,0,1-.751,1.529Z" transform="translate(-493.205 -311.711)"/>
    <path id="Path_76" data-name="Path 76" class="cls-44" d="M613.491,422.265H594.025a4.172,4.172,0,0,1-.07-1.251L613.491,421Z" transform="translate(-500.866 -298.65)"/>
    <path id="Path_77" data-name="Path 77" class="cls-1" d="M626.694,399.942a3.533,3.533,0,0,1-1.14-.153c-3.128.765-4.352-1.655-5.77-3.573-2.67-3.587-4.894-7.508-7.745-10.984-5.353-8.12-11.123-15.934-16.018-24.388a4.573,4.573,0,0,1-.278-1.933l.556-.82,41.56,5.562C633.716,375.623,628.808,387.358,626.694,399.942Z" transform="translate(-500.165 -323.212)"/>
    <path id="Path_78" data-name="Path 78" class="cls-1" d="M620.557,401.791,619,399.011c3.24-11.207,6.493-22.428,10.331-35.651,4.936,13.7,9.191,25.486,13.431,37.277l-1.126,1.46C634.628,402.514,627.579,403.1,620.557,401.791Z" transform="translate(-491.081 -321.154)"/>
    <path id="Path_79" data-name="Path 79" class="cls-29" d="M602,439.111c1.224-2.252,2.781-4.046,5.562-4.171C606.408,437.179,604.85,439,602,439.111Z" transform="translate(-497.718 -293.208)"/>
    <path id="Path_80" data-name="Path 80" class="cls-45" d="M610,433.171c1.237-2.253,2.781-4.046,5.562-4.171C614.394,431.169,612.85,432.99,610,433.171Z" transform="translate(-494.595 -295.527)"/>
    <path id="Path_81" data-name="Path 81" class="cls-29" d="M618,427.171c1.224-2.266,2.781-4.046,5.562-4.171C622.38,425.169,620.85,427.018,618,427.171Z" transform="translate(-491.471 -297.869)"/>
    <path id="Path_82" data-name="Path 82" class="cls-45" d="M606,436.171c1.224-2.253,2.781-4.046,5.562-4.171C610.408,434.169,608.85,435.99,606,436.171Z" transform="translate(-496.156 -294.356)"/>
    <path id="Path_83" data-name="Path 83" class="cls-46" d="M614,430.171c1.224-2.252,2.781-4.046,5.562-4.171C618.394,428.169,616.85,430,614,430.171Z" transform="translate(-493.033 -296.698)"/>
    <path id="Path_84" data-name="Path 84" class="cls-1" d="M604.317,341.047a2.559,2.559,0,0,1,1.168-.153c4.908,2.489,6.952,8.635,12.764,9.955a4.463,4.463,0,0,1,2.517,1.112c2.975,2.6,5.423,5.826,9.038,7.689,1.015,1.029,3.017,1.39,2.28,3.587.556,1.182,1.835,2.711,1.488,3.49-.626,1.39-2.35.459-3.643.278-11.221-1.571-22.428-3.407-33.787-3.935C595.432,354.492,599.757,347.749,604.317,341.047Z" transform="translate(-500.035 -329.931)"/>
    <path id="Path_85" data-name="Path 85" class="cls-10" d="M627.544,362.607l-2.781-2.642c-3.629-2.392-6.048-6.2-9.816-8.44l-1.293-1.307L607.8,342.64l13.9,6.09,4.547,6.952C626.07,358.074,630.839,359.589,627.544,362.607Z" transform="translate(-495.454 -329.244)"/>
    <path id="Path_86" data-name="Path 86" class="cls-8" d="M605.077,341.131,596.9,363.155v1.682h0c-2.169.222-2.419-1.39-2.781-2.906.667-7.036,4.171-13.112,6.952-19.4.528-1.2,1.39-2.475,3.2-1.557a.82.82,0,0,1,.806.153Z" transform="translate(-500.794 -330.015)"/>
    <path id="Path_87" data-name="Path 87" class="cls-1" d="M554.584,372.176c-1.21-2.253-2.781-4.018-5.562-4.171-1.39-3.031-4.171-4.171-6.952-5.562,5.131-4.366,12.194-5.84,16.685-11.123,1.557-2.628,5.061-1.961,6.952-4.088,2.113-1.766,4.894-2.433,6.952-4.171h2.781c1.877,2.141.987,4.338,0,6.424-4,8.509-7.4,17.3-11.944,25.542a3.935,3.935,0,0,1-2.906,1.085c-2.572-.417-3.893-2.781-6.062-3.865Z" transform="translate(-521.116 -329.08)"/>
    <path id="Path_88" data-name="Path 88" class="cls-9" d="M566.022,343c-1.5,2.781-4.171,3.671-6.952,4.171C560.474,344.39,563.144,343.528,566.022,343Z" transform="translate(-514.479 -329.104)"/>
    <path id="Path_89" data-name="Path 89" class="cls-1" d="M612.839,341.316c-4.408,6.326-6.34,13.71-8.885,20.856a3.156,3.156,0,0,1-2.67,1.2,129.312,129.312,0,0,1-25.653-16.588c-1.224-1.738-4.171-2.364-3.6-5.3,13.279-2.781,26.7-.751,40.044-1.293Z" transform="translate(-509.447 -330.284)"/>
    <path id="Path_90" data-name="Path 90" class="cls-46" d="M573.148,341c1.085,1.752,3.643,1.988,4.255,4.171-3.7,1.752-6.146-.25-8.343-2.781l1.669-1.39Z" transform="translate(-510.579 -329.884)"/>
    <path id="Path_91" data-name="Path 91" class="cls-34" d="M538.106,392.558c-3.991.57-3.129,3.587-2.461,5.8a25.929,25.929,0,0,1,.987,8.106c-1.96-2.781-2.419-6.132-2.781-9.413-.209-1.835-.862-2.962-2.781-3.087V387.01l3.2.195Z" transform="translate(-525.411 -311.921)"/>
    <path id="Path_92" data-name="Path 92" class="cls-22" d="M593.916,423.116c2.781,7.133,2.35,15.531,8.217,21.51l-4.171.542c-2.127-7.425-3.323-15.156-6.952-22.108Z" transform="translate(-502.009 -297.846)"/>
    <path id="Path_93" data-name="Path 93" class="cls-47" d="M620.167,391l21.121.32a3.38,3.38,0,0,1-.264,1.057L620,392.39Z" transform="translate(-490.69 -310.363)"/>
    <path id="Path_94" data-name="Path 94" class="cls-9" d="M557.067,375.428c1.474-8.343,6.716-15.295,9.511-23.109,1.057-2.948,3.3-5.492,3.045-8.9l2.781-1.39-.125.125c2.294,2.781.556,5.27-.612,7.675-4.171,8.482-7.661,17.241-11.638,25.792a5.144,5.144,0,0,1-1.39,1.39C557.428,377.222,556.8,376.749,557.067,375.428Z" transform="translate(-515.284 -329.482)"/>
    <path id="Path_95" data-name="Path 95" class="cls-1" d="M558.22,376.444c2.266-9.219,7.119-17.38,10.845-26,1.182-2.781,3.156-5.158,2.781-8.343h1.39l8.343,2.781,25,16.546c.417,1.794-.806,2.531-2.155,2.878C589,368.254,573.987,373.816,558.22,376.444Z" transform="translate(-514.811 -329.455)"/>
    <path id="Path_96" data-name="Path 96" class="cls-48" d="M535.064,401c2.336,1.961,1.112,4.63,1.39,6.952C534.133,405.992,535.4,403.308,535.064,401Z" transform="translate(-523.871 -306.459)"/>
    <path id="Path_97" data-name="Path 97" class="cls-1" d="M593.847,361.085c4.964,4.032,3.629,9.246,1.39,13.557-1.808,3.5-3.685,6.841-4.074,10.734-.528,5.172-3.059,5.562-7.063,3.5-5.993-3.017-10.97-7.494-16.129-11.6-3.267-2.586-2.614-5.923,1.571-7.328a125.731,125.731,0,0,1,16.435-4.547c3.059-.57,5.117-1.682,6.521-4.3a.876.876,0,0,1,1.349-.028Z" transform="translate(-511.812 -322.161)"/>
    <path id="Path_98" data-name="Path 98" class="cls-1" d="M591.7,411.078c1.641,1.557-1.39,4.3,1.391,5.562,1.516,4.282.125,5.687-4.171,4.171-8.134-1.5-15.295-5.812-22.956-8.468-3.045-1.029-1.265-3.128.181-3.977,4.171-2.461,6.952-6.757,11.666-8.343,2.628-3.045,5.756-4.394,9.733-2.781,0,1.516-.236,3.156,1.391,4.171C590.833,404.292,590.639,407.852,591.7,411.078Z" transform="translate(-512.441 -308.194)"/>
    <path id="Path_99" data-name="Path 99" class="cls-11" d="M597.026,362.991h-1.39l-37.444,9.733a.834.834,0,0,1-.431-.779c0-.32.083-.473.167-.473l.417-.459c14.113-4.046,28.2-8.134,42.352-12.069,2.239-.626,4.491-.918,6.021-2.906l2.781-.139a3.365,3.365,0,0,0,1.529,3.017v1.321c-4.727,12.959-8.648,26.223-14.7,38.682-1.2.681-1.933.417-2.058-1.029,1.641-10.3,7.175-19.285,9.9-29.2.7-2.558,3.351-5.826,1.46-7.522C603.033,358.82,599.724,361.281,597.026,362.991Z" transform="translate(-514.991 -324.067)"/>
    <path id="Path_100" data-name="Path 100" class="cls-49" d="M587.48,403.146c3.671,7.411,4.769,15.587,6.952,23.443a4.016,4.016,0,0,1-1.39.278c-3.559-7.536-4.074-15.962-6.952-23.637C586.549,402.423,587.008,402.451,587.48,403.146Z" transform="translate(-503.93 -305.824)"/>
    <path id="Path_101" data-name="Path 101" class="cls-50" d="M585.428,386.13l1.46,1.085a3.031,3.031,0,0,1,2.1,2.781,1.821,1.821,0,0,1-.946,1.39l-1.154,1.571a3.254,3.254,0,0,1-1.46,1.126c-2.489-.111-4.88-.834-5.075-3.629C580.158,387.187,582.647,386.339,585.428,386.13Z" transform="translate(-506.174 -312.264)"/>
    <path id="Path_102" data-name="Path 102" class="cls-51" d="M560.55,406.033l17.214-11.123C573.008,400.166,567.544,404.3,560.55,406.033Z" transform="translate(-513.901 -308.837)"/>
    <path id="Path_103" data-name="Path 103" class="cls-52" d="M584.015,392.176l1.46-1.126q1.391,8.343,2.781,16.56h-1.39C585.8,402.507,583.584,397.585,584.015,392.176Z" transform="translate(-504.761 -310.344)"/>
    <path id="Path_104" data-name="Path 104" class="cls-16" d="M557.1,370.629v-1.21l.25-.64.667.195a15.976,15.976,0,0,1,8.815,7.091C562.717,375.732,560.965,371.3,557.1,370.629Z" transform="translate(-515.248 -319.038)"/>
    <path id="Path_105" data-name="Path 105" class="cls-1" d="M583.733,397.409c-3.657-.542-6.674,1.182-9.733,2.781C576.211,395.434,579.562,394.948,583.733,397.409Z" transform="translate(-508.65 -308.429)"/>
    <path id="Path_106" data-name="Path 106" class="cls-9" d="M572.231,382.562,568.06,377c3.5.389,5.256,2.962,6.952,5.562h-2.781Z" transform="translate(-510.969 -315.829)"/>
    <path id="Path_107" data-name="Path 107" class="cls-53" d="M558.959,370.041a.9.9,0,0,0-.918.445l-2.781-.236c-.806-1.39-1.2-2.781.306-4.046l2.489-.153,1.21,1.5a4.785,4.785,0,0,0,.264,1.251,5.15,5.15,0,0,0-.57,1.237Z" transform="translate(-516.245 -320.104)"/>
    <path id="Path_108" data-name="Path 108" class="cls-1" d="M584.781,409.733A20.857,20.857,0,0,1,582,400C585.254,402.572,584.85,406.187,584.781,409.733Z" transform="translate(-505.526 -306.849)"/>
    <path id="Path_109" data-name="Path 109" class="cls-29" d="M573.083,381c3.128.195,4.574,2.433,6.952,5.673A11.652,11.652,0,0,1,573,381Z" transform="translate(-509.04 -314.267)"/>
    <path id="Path_110" data-name="Path 110" class="cls-1" d="M582,415.171c3.087.306,4.477-1.071,4.171-4.171,1.655,1.39,1.988,3.24.528,4.7S583.46,416.784,582,415.171Z" transform="translate(-505.527 -302.555)"/>
    <path id="Path_111" data-name="Path 111" class="cls-33" d="M569.622,378.171c-2.781-.1-4.366-1.947-5.562-4.171C566.855,374.125,568.4,375.947,569.622,378.171Z" transform="translate(-512.531 -317)"/>
    <path id="Path_112" data-name="Path 112" class="cls-9" d="M592.769,423.88A40.156,40.156,0,0,1,576,433.78a43.466,43.466,0,0,1,16.769-9.9Z" transform="translate(-507.869 -297.526)"/>
    <path id="Path_113" data-name="Path 113" class="cls-54" d="M578.012,430.93c-1.488,2.781-4.1,3.726-6.952,4.171C572.506,432.334,575.148,431.417,578.012,430.93Z" transform="translate(-509.798 -294.773)"/>
    <path id="Path_114" data-name="Path 114" class="cls-9" d="M557.3,366.98l-.306,4.046v1.39c-2.586.932-3.74,4.269-6.952,4.171,3.462-3.838,7.564-7.606,1.39-12.514C553.975,363.852,555.254,366.16,557.3,366.98Z" transform="translate(-518.005 -320.881)"/>
    <path id="Path_115" data-name="Path 115" class="cls-29" d="M549.289,402.76c-5.339-1.46-8.051-5.909-11.249-9.83C543.282,394.5,546.007,398.951,549.289,402.76Z" transform="translate(-522.69 -309.609)"/>
    <path id="Path_116" data-name="Path 116" class="cls-55" d="M559.892,433.952A16.755,16.755,0,0,1,550.02,427a17.046,17.046,0,0,1,9.872,6.952Z" transform="translate(-518.012 -296.308)"/>
    <path id="Path_117" data-name="Path 117" class="cls-1" d="M619,400.52c4.6,6.257,4.255,13.737,6.243,20.467.973,3.3-1.9,3.712-4.3,3.74-5.325.083-10.651.07-15.962,0-4.338,0-4.686-1.863-2.419-5.172A111.816,111.816,0,0,1,619,400.52Z" transform="translate(-498.034 -306.646)"/>
    <path id="Path_118" data-name="Path 118" class="cls-47" d="M585.907,390.953a2.044,2.044,0,0,1,.236-1.307c6.591-3.073,13.153-3.337,19.661.25a2.42,2.42,0,0,1-.25,2.447C599.157,389.813,592.442,391.7,585.907,390.953Z" transform="translate(-504.01 -311.818)"/>
    <path id="Path_119" data-name="Path 119" class="cls-47" d="M600,391.955v-1.279c6.646-2.711,13.279-3.754,19.855.209a1.641,1.641,0,0,1-.362,1.182Z" transform="translate(-498.499 -311.43)"/>
    <path id="Path_120" data-name="Path 120" class="cls-54" d="M609,403.03c.487-3.782,3.532-5.395,6.285-7.23-1,3.337-3.518,5.395-6.243,7.272Z" transform="translate(-494.985 -308.489)"/>
    <path id="Path_121" data-name="Path 121" class="cls-55" d="M610.952,401c-.709,4.1-3.977,6.09-6.952,8.343h0C604.723,405.241,607.977,403.252,610.952,401Z" transform="translate(-496.937 -306.459)"/>
    <path id="Path_122" data-name="Path 122" class="cls-29" d="M600.793,413.09a10.15,10.15,0,0,1-5.673,6.285C596.024,416.191,597.651,414.828,600.793,413.09Z" transform="translate(-500.404 -301.739)"/>
    <path id="Path_123" data-name="Path 123" class="cls-45" d="M605.655,407c-.181,3.142-2.461,4.547-5.715,7.022A11.721,11.721,0,0,1,605.585,407Z" transform="translate(-498.522 -304.116)"/>
    <path id="Path_124" data-name="Path 124" class="cls-1" d="M625.753,402.284l-19.9-.209c-6.285-2.934-12.959-.709-19.466-1.39L585,397.807q6.3-17.895,12.514-35.8a4.713,4.713,0,0,1,2.781-2.934A253.364,253.364,0,0,1,616.98,384c2.683,5.937,8.064,10.317,9.733,16.81Z" transform="translate(-504.355 -322.829)"/>
    <path id="Path_125" data-name="Path 125" class="cls-29" d="M617.793,393.77c-3.045-5.729-8.343-10.15-9.733-16.81,5.562,4.088,6.6,11.8,12.681,15.462Z" transform="translate(-495.352 -315.845)"/>
    <path id="Path_126" data-name="Path 126" class="cls-56" d="M613,349c4.783,1.071,7.119,4.95,9.816,8.44C618.1,356.314,615.781,352.434,613,349Z" transform="translate(-493.423 -326.761)"/>
    <path id="Path_127" data-name="Path 127" class="cls-1" d="M589.252,390.67c1.738-2.628.445-6.187,2.572-9.038,2.5-3.323,4.491-6.952,4.171-11.485a3.379,3.379,0,0,1,1.78-3.5c1.933-.932,3.268.5,4.046,1.766,4.547,7.481,9.08,14.961,13.265,22.636,1.39,2.531-1.238,4.171-2.892,5.729s-4.435,1.877-5.673.222c-3.74-4.964-8.217-5.1-13.543-3.462C591.2,394.077,589.113,393.674,589.252,390.67Z" transform="translate(-502.698 -319.989)"/>
  </g>
</svg>
