<svg xmlns="http://www.w3.org/2000/svg" xmlns:xlink="http://www.w3.org/1999/xlink" width="229" height="53" viewBox="0 0 229 53">
  <defs>
    <style>
      .cls-1 {
        clip-path: url(#clip-plannr_name);
      }

      .cls-2 {
        fill: #2d0749;
      }

      .cls-3 {
        fill: #2d074a;
      }

      .cls-4 {
        fill: #2d084a;
      }

      .cls-5 {
        fill: #2c0649;
      }

      .cls-6 {
        fill: #f8f8f8;
      }

      .cls-7 {
        fill: #f3f2f4;
      }

      .cls-8 {
        fill: rgba(255,255,255,0);
      }
    </style>
    <clipPath id="clip-plannr_name">
      <rect width="229" height="53"/>
    </clipPath>
  </defs>
  <g id="plannr_name" class="cls-1">
    <rect class="cls-8" width="229" height="53"/>
    <g id="Group_39" data-name="Group 39" transform="translate(-60 -57)">
      <path id="Path_664" data-name="Path 664" class="cls-2" d="M661.186,397.562c0-6.7.069-13.39,0-20.078,0-2.781.653-4.324,3.838-4.171,7.606.348,15.295-.584,22.831.681,9.33,1.557,14.558,7.522,14.558,16.463,0,9.58-5.729,16.087-15.295,17.408a12.153,12.153,0,0,1-3.448.292c-7.842-1.224-11.318,1.543-10.039,9.886.918,5.9-4.018,3.407-6.632,3.712-2.878.348-6.1.89-5.854-4.171C661.436,410.952,661.172,404.25,661.186,397.562Z" transform="translate(-600.632 -313.293)"/>
      <path id="Path_667" data-name="Path 667" class="cls-3" d="M741.522,399.662a109.239,109.239,0,0,1,.1-11.123c.25-2.378-1.974-6.591,2.336-6.688,3.115,0,7.939-3.3,9.664,2.781.792,2.781,1.933.375,2.642-.153,5.339-3.949,11.123-4.755,16.949-1.682s6.869,8.8,6.7,14.905A130.026,130.026,0,0,0,779.982,413c.459,5.061-1.516,5.979-6.187,6.048-5.089.069-6.382-1.738-6.007-6.4a122.62,122.62,0,0,0,0-13.181c-.083-4.1-1.391-7.383-6.2-7.592s-7.411,2.781-7.828,7.091a80.878,80.878,0,0,0-.125,15.295c.487,5.353-2.781,4.658-6.035,4.672s-6.618.64-6.2-4.644C741.828,409.409,741.522,404.515,741.522,399.662Z" transform="translate(-569.345 -310.318)"/>
      <path id="Path_668" data-name="Path 668" class="cls-3" d="M788.062,386.128c5.562-5.047,11.833-6.841,18.59-3.462s7.272,9.538,7.105,16.059a88.3,88.3,0,0,0,0,13.154c.737,5.979-1.571,7.522-7.244,7.133-3.81-.264-5.367-1.085-5.1-5.117.32-4.825.07-9.733.07-14.544,0-4.171-1.488-7.341-6.229-7.48s-7.383,2.781-7.745,7.133a94.565,94.565,0,0,0,0,15.295c.445,5.3-2.781,4.672-6.09,4.616s-6.549.973-6.326-4.477c.361-9,0-18.076.153-27.016,0-2.211-1.39-5.868,2.781-5.562C781.722,381.956,787.075,378.995,788.062,386.128Z" transform="translate(-556.166 -310.312)"/>
      <path id="Path_666" data-name="Path 666" class="cls-2" d="M745.42,404.653v6.952c0,6.73-5.409,10.553-10.706,6.6-2.683-2-3.434-1-5.27-.222a16.921,16.921,0,0,1-12.166.737,10.873,10.873,0,0,1-7.995-10.929c0-5.478,3.031-8.913,8.343-10.5,3.879-1.154,7.8-.584,11.707-.862,1.39-.1,3.643.945,3.921-1.39a4,4,0,0,0-3.059-4.171,14.321,14.321,0,0,0-10.831.681c-3.879,1.821-5.1,0-6.521-3.226-1.766-4.1,1.293-4.171,3.49-4.88a49.082,49.082,0,0,1,8.718-2.183c14.155-1.724,20.328,3.768,20.356,17.853Z" transform="translate(-581.835 -310.303)"/>
      <path id="Path_669" data-name="Path 669" class="cls-4" d="M832.5,381.154l-.083,10.567c-9.316,1.1-11.123,3.059-11.123,12.18a53.139,53.139,0,0,0,0,8.343c.876,5.784-1.808,6.869-6.952,6.744-4.171-.083-5.562-1.043-5.409-5.395.348-8.523,0-17.074.195-25.612.069-2.253-1.988-6.382,2.781-6.257,3.685.1,9.135-2.781,10.011,4.449C825.145,383.364,828.246,380.945,832.5,381.154Z" transform="translate(-542.999 -310.232)"/>
      <path id="Path_665" data-name="Path 665" class="cls-5" d="M695.609,396.725c0-7.133.181-14.28-.069-21.413-.181-5.006,3.115-4.171,5.993-4.046s6.146-1.293,6.062,3.879c-.195,14.516-.236,29.032,0,43.534.1,5.2-3.212,4.018-5.951,3.935s-6.312,1.529-6.132-3.768C695.79,411.477,695.609,404.094,695.609,396.725Z" transform="translate(-587.211 -314.138)"/>
      <path id="Path_670" data-name="Path 670" class="cls-6" d="M670.181,389.63c.111-5.3-1.39-9.83,5.673-9.33,8.106.57,11.276,2.322,11.012,8.106-.32,7.2-5.562,6.952-10.818,7.494C669.333,396.583,669.819,392.495,670.181,389.63Z" transform="translate(-597.169 -310.575)"/>
      <path id="Path_671" data-name="Path 671" class="cls-7" d="M725,396.775c1.738.723,5.27-1.5,5.256,2.2,0,4.575-3.671,6.034-7.62,6.2-2.781.125-5.228-1.224-5.075-4.352C717.826,395.968,721.844,397.095,725,396.775Z" transform="translate(-578.602 -304.135)"/>
    </g>
  </g>
</svg>
